HIERARCHY
ROOT hip
{
	OFFSET 0.000000 0.000000 0.000000 
	CHANNELS 6 Xposition Yposition Zposition Xrotation Zrotation Yrotation
	JOINT abdomen
	{
		OFFSET 0.000000 3.402643 0.000000 
		CHANNELS 3 Xrotation Zrotation Yrotation
		JOINT chest
		{
			OFFSET 0.000000 8.438565 -0.680529 
			CHANNELS 3 Xrotation Zrotation Yrotation
			JOINT neck
			{
				OFFSET 0.000000 10.207942 -0.272212 
				CHANNELS 3 Xrotation Zrotation Yrotation
				JOINT head
				{
					OFFSET 0.000000 3.130431 0.000000 
					CHANNELS 3 Xrotation Zrotation Yrotation
					End Site
					{
						OFFSET 0.000000 3.130435 0.000000 
					}
				}
			}
			JOINT lCollar
			{
				OFFSET 3.470700 6.669187 -0.816635 
				CHANNELS 3 Yrotation Zrotation Xrotation
				JOINT lShldr
				{
					OFFSET 3.198488 0.000000 0.000000 
					CHANNELS 3 Zrotation Yrotation Xrotation
					JOINT lForeArm
					{
						OFFSET 10.139888 0.000000 0.000000 
						CHANNELS 3 Yrotation Zrotation Xrotation
						JOINT lHand
						{
							OFFSET 8.370511 0.000000 0.000000 
							CHANNELS 3 Zrotation Yrotation Xrotation
							End Site
							{
								OFFSET 4.083176 0.000000 0.000000 
							}
						}
					}
				}
			}
			JOINT rCollar
			{
				OFFSET -3.470700 6.669187 -0.816635 
				CHANNELS 3 Yrotation Zrotation Xrotation
				JOINT rShldr
				{
					OFFSET -3.198488 0.000000 0.000000 
					CHANNELS 3 Zrotation Yrotation Xrotation
					JOINT rForeArm
					{
						OFFSET -10.139888 0.000000 0.000000 
						CHANNELS 3 Yrotation Zrotation Xrotation
						JOINT rHand
						{
							OFFSET -8.370511 0.000000 0.000000 
							CHANNELS 3 Zrotation Yrotation Xrotation
							End Site
							{
								OFFSET -4.083176 0.000000 0.000000 
							}
						}
					}
				}
			}
		}
	}
	JOINT lThigh
	{
		OFFSET 5.308129 -1.633274 1.361059 
		CHANNELS 3 Xrotation Zrotation Yrotation
		JOINT lShin
		{
			OFFSET -2.041588 -20.007561 0.000000 
			CHANNELS 3 Xrotation Zrotation Yrotation
			JOINT lFoot
			{
				OFFSET 0.000000 -19.190928 -1.224953 
				CHANNELS 3 Xrotation Yrotation Zrotation
				End Site
				{
					OFFSET 0.000000 -2.449906 4.627600 
				}
			}
		}
	}
	JOINT rThigh
	{
		OFFSET -5.308129 -1.633274 1.361059 
		CHANNELS 3 Xrotation Zrotation Yrotation
		JOINT rShin
		{
			OFFSET 2.041588 -20.007561 0.000000 
			CHANNELS 3 Xrotation Zrotation Yrotation
			JOINT rFoot
			{
				OFFSET 0.000000 -19.190928 -1.224953 
				CHANNELS 3 Xrotation Yrotation Zrotation
				End Site
				{
					OFFSET 0.000000 -2.449906 4.627600 
				}
			}
		}
	}
}
MOTION
Frames: 8
Frame Time: 0.033333
33.453403 45.948544 -111.145271 -0.563299 -8.817940 25.641973 41.454044 -4.148293 -2.035968 -20.839844 0.000000 0.000000 28.044071 2.016557 7.202868 -2.520860 -1.255023 0.218345 -4.754609 -0.109182 -0.002653 -68.161530 -59.640015 25.574509 -10.209282 11.116111 23.566559 -6.826046 -3.972374 -8.196620 4.754609 0.109182 -0.002672 38.037476 34.163208 -18.325933 69.971909 -0.953260 9.778243 1.300246 -6.410494 14.743999 -88.827522 27.118967 -3.267515 104.816780 -1.008299 -2.031085 -15.187052 3.187791 6.426204 -76.443970 -30.038376 -5.685635 95.376419 11.649837 6.004591 -4.708543 -0.375273 4.433684 
33.459499 45.943462 -111.133591 -0.494187 -8.866863 25.719797 41.538715 -4.069301 -2.159132 -20.839844 0.000000 0.000000 27.926107 1.856511 7.245209 -2.520860 -1.255023 0.218345 -4.754609 -0.109182 -0.002653 -67.983269 -59.684849 25.408104 -10.336784 11.103846 23.428555 -6.930811 -3.887467 -8.276988 4.754609 0.109182 -0.002672 37.813118 34.179733 -18.389891 70.042099 -0.885192 9.750028 1.233046 -6.287307 14.676314 -88.945374 27.011887 -3.275940 104.844849 -0.991298 -2.041946 -15.134975 3.198946 6.407046 -76.439255 -30.250769 -5.706440 95.421165 11.766407 6.064844 -4.832286 -0.293462 3.875841 
33.456959 45.936855 -111.128006 -0.454689 -8.896209 25.792128 41.564194 -3.986346 -2.272040 -20.839844 0.000000 0.000000 27.975412 1.755341 7.322411 -2.520860 -1.255023 0.218345 -4.754609 -0.109182 -0.002653 -67.793587 -59.664345 25.253929 -10.350910 11.040828 23.482868 -6.973870 -3.981018 -8.156643 4.754609 0.109182 -0.002672 37.759197 34.148449 -18.380825 70.229919 -0.821693 9.755359 1.233549 -6.334260 14.646511 -89.038765 26.942036 -3.285970 104.826065 -0.988675 -2.017345 -15.076001 3.229752 6.464525 -76.443024 -30.408979 -5.761907 95.453278 11.835332 6.116566 -4.894957 -0.237830 3.932159 
33.447819 45.933308 -111.120392 -0.405244 -8.876735 25.745378 41.520393 -3.905374 -2.256396 -20.839844 0.000000 0.000000 28.023018 1.677388 7.281820 -2.520860 -1.255023 0.218345 -4.754609 -0.109182 -0.002653 -67.744286 -59.662346 25.212261 -10.279817 10.959913 23.555372 -6.847328 -4.257509 -8.002599 4.754609 0.109182 -0.002672 37.638290 34.236664 -18.392742 70.200119 -0.766907 9.790743 1.240663 -6.409913 14.665274 -89.033089 26.992258 -3.280443 104.797272 -1.005699 -2.025436 -15.098314 3.239517 6.504237 -76.489761 -30.397980 -5.763110 95.442963 11.835185 6.123143 -4.844483 -0.227812 3.723600 
33.446796 45.934330 -111.112785 -0.405212 -8.847439 25.715879 41.436092 -3.975336 -2.260230 -20.839844 0.000000 0.000000 28.129477 1.697504 7.214368 -2.520860 -1.255023 0.218345 -4.754609 -0.109182 -0.002653 -67.560699 -59.571518 25.010859 -10.429219 10.810673 23.267895 -6.918846 -4.275593 -8.335437 4.754609 0.109182 -0.002672 37.817318 34.277618 -18.317085 70.094749 -0.800693 9.825133 1.337040 -6.353741 14.725610 -88.974487 27.037790 -3.268515 104.808296 -1.042232 -2.043711 -15.113076 3.175553 6.459380 -76.503578 -30.439421 -5.750573 95.476578 11.865022 6.076570 -4.796596 -0.302100 3.850508 
33.454418 45.932804 -111.111763 -0.355796 -8.847489 25.718136 41.434883 -4.124272 -2.280620 -20.839844 0.000000 0.000000 28.130409 1.938634 7.153318 -2.520860 -1.255023 0.218345 -4.754609 -0.109182 -0.002653 -67.449036 -59.576283 24.885441 -10.511789 10.730944 23.249466 -6.763454 -4.226066 -8.287769 4.754609 0.109182 -0.002672 37.907982 34.236675 -18.302025 70.041466 -0.833320 9.803915 1.265296 -6.297055 14.715859 -89.013931 27.051048 -3.257452 104.839249 -1.088992 -2.067206 -15.164163 3.195528 6.494664 -76.563881 -30.434875 -5.709740 95.487282 11.845701 6.030447 -4.729016 -0.429695 4.538039 
33.458988 45.931278 -111.099579 -0.247120 -8.906169 25.711626 41.402775 -4.082006 -2.240056 -20.839844 0.000000 0.000000 27.923346 1.936856 7.037938 -2.520860 -1.255023 0.218345 -4.754609 -0.109182 -0.002653 -67.690201 -59.575081 25.064127 -10.547206 10.933035 23.410795 -6.718821 -4.248842 -8.041889 4.754609 0.109182 -0.002672 37.695129 34.204948 -18.368065 70.095032 -0.770736 9.731672 1.123053 -6.296031 14.587532 -89.171288 26.979885 -3.270055 104.832268 -1.057252 -1.950029 -15.148180 3.313925 6.645805 -76.682899 -30.445581 -5.713281 95.486923 11.845727 6.040035 -4.688206 -0.418820 4.520989 
33.458988 45.930264 -111.085876 -0.187831 -8.945265 25.712444 41.389713 -4.024716 -2.237283 -20.839844 0.000000 0.000000 27.824127 1.860459 6.985510 -2.520860 -1.255023 0.218345 -4.754609 -0.109182 -0.002653 -67.950066 -59.517094 25.305567 -10.535846 11.225067 23.628510 -6.859176 -4.302848 -7.884039 4.754609 0.109182 -0.002672 37.622002 34.186905 -18.393305 70.206009 -0.757086 9.646148 1.190232 -6.398729 14.440246 -89.248383 26.963173 -3.286241 104.842300 -1.040255 -1.920295 -15.135373 3.347917 6.662997 -76.724022 -30.466503 -5.696013 95.498009 11.883469 6.074842 -4.737244 -0.322702 4.074512 
